<svg xmlns="http://www.w3.org/2000/svg" width="24" height="24" fill="none" viewBox="0 0 24 24"><path fill="#121331" fill-rule="evenodd" d="M21.75 4a.75.75 0 0 1 .727.937l-1.865 7.248a2.75 2.75 0 0 1-2.663 2.065H7.478l-.819 1.754Q6.704 16 6.75 16h10.5q.039 0 .078.004a2.748 2.748 0 0 1-.078 5.496 2.75 2.75 0 0 1-2.447-4H9.197a2.75 2.75 0 1 1-4.853-.083l1.862-3.99L4.168 5.5H1.75a.75.75 0 0 1 0-1.5zm-15 13.5a1.25 1.25 0 1 0 0 2.5 1.25 1.25 0 0 0 0-2.5m10.5 0a1.25 1.25 0 1 0 0 2.5 1.25 1.25 0 0 0 0-2.5" clip-rule="evenodd"/></svg>